<?xml version="1.0" standalone="no"?>
<!DOCTYPE svg PUBLIC "-//W3C//DTD SVG 20010904//EN"
 "http://www.w3.org/TR/2001/REC-SVG-20010904/DTD/svg10.dtd">
<svg version="1.0" xmlns="http://www.w3.org/2000/svg"
 width="1772.000000pt" height="1772.000000pt" viewBox="0 0 1772.000000 1772.000000"
 preserveAspectRatio="xMidYMid meet">
<metadata>
Created by potrace 1.14, written by Peter Selinger 2001-2017
</metadata>
<g transform="translate(0.000000,1772.000000) scale(0.100000,-0.100000)"
fill="#000000" stroke="none">
<path d="M8678 16955 c-2 -1 -52 -6 -113 -9 -60 -3 -121 -8 -135 -10 -14 -2
-46 -7 -71 -10 -25 -4 -57 -9 -70 -11 -13 -2 -40 -6 -59 -9 -19 -3 -44 -7 -55
-10 -11 -2 -40 -7 -65 -11 -53 -9 -56 -9 -140 -28 -36 -8 -101 -25 -145 -37
-44 -12 -84 -23 -90 -24 -243 -63 -628 -228 -911 -392 -91 -53 -332 -209 -344
-223 -3 -4 -18 -15 -34 -25 -25 -16 -196 -152 -271 -216 -73 -62 -360 -354
-432 -440 -128 -152 -373 -491 -373 -516 0 -3 -10 -20 -22 -37 -109 -152 -347
-686 -414 -927 -18 -67 -84 -330 -88 -350 -2 -14 -11 -65 -20 -115 -8 -49 -17
-108 -20 -130 -3 -22 -10 -72 -16 -112 -30 -214 -32 -700 -5 -913 2 -19 7 -57
11 -85 5 -43 12 -91 40 -250 21 -123 111 -466 143 -547 5 -13 19 -50 31 -83
26 -70 26 -72 75 -190 239 -577 668 -1159 1140 -1549 39 -32 81 -68 95 -80 14
-12 41 -33 60 -46 19 -13 37 -27 40 -30 14 -15 236 -170 245 -170 2 0 31 -18
64 -40 129 -86 325 -186 596 -306 77 -34 336 -126 394 -140 9 -2 50 -13 91
-24 41 -12 86 -23 100 -26 14 -3 41 -9 60 -14 54 -15 200 -41 295 -55 244 -33
246 -34 415 -42 175 -8 232 -8 421 1 139 7 164 9 254 20 22 3 60 8 85 11 25 3
70 10 100 16 30 5 73 12 95 15 121 17 453 105 610 163 270 98 624 266 747 352
14 11 28 19 31 19 13 0 259 168 347 237 195 151 316 259 464 412 122 126 110
114 202 221 279 329 526 743 684 1145 70 177 173 516 195 640 2 17 7 41 10 55
7 31 14 72 19 108 11 69 19 118 21 132 2 8 6 44 10 80 4 36 9 73 10 82 2 9 7
76 11 150 23 411 -10 806 -101 1208 -85 372 -274 831 -485 1174 -279 456 -626
840 -1050 1162 -95 73 -283 202 -335 230 -11 6 -58 34 -105 61 -297 173 -644
316 -980 404 -41 11 -82 22 -90 24 -68 18 -276 57 -375 71 -27 3 -58 8 -67 9
-9 2 -48 7 -85 11 -37 4 -81 8 -98 11 -37 4 -542 12 -547 8z"/>
<path d="M3629 8086 c-90 -45 -195 -100 -234 -121 -205 -113 -537 -336 -710
-476 -266 -217 -455 -398 -700 -670 -55 -60 -178 -215 -258 -324 -37 -49 -71
-96 -77 -102 -22 -27 -219 -332 -274 -426 -64 -109 -223 -419 -249 -484 -9
-23 -25 -61 -36 -85 -87 -187 -256 -685 -285 -838 -2 -14 -14 -65 -26 -115
-27 -110 -26 -105 -50 -240 -31 -177 -55 -349 -66 -485 -3 -41 -8 -86 -11
-100 -4 -14 -8 -728 -10 -1586 l-4 -1561 8245 0 8245 0 -4 1521 c-4 1457 -5
1581 -19 1706 -4 30 -9 78 -12 105 -9 91 -14 129 -25 205 -15 107 -19 132 -24
160 -3 14 -7 36 -10 50 -18 96 -52 246 -81 360 -64 253 -180 586 -292 835 -83
185 -279 559 -324 620 -4 6 -53 79 -109 164 -56 85 -106 160 -113 167 -6 7
-22 29 -36 49 -24 34 -142 188 -178 230 -9 11 -36 45 -61 75 -49 61 -92 108
-226 249 -135 141 -260 261 -384 367 -19 16 -47 41 -62 55 -16 14 -43 36 -60
50 -18 13 -60 46 -93 73 -34 26 -90 69 -126 94 -36 26 -67 49 -70 52 -3 3 -59
41 -125 85 -66 44 -122 82 -125 85 -5 5 -8 7 -160 97 -52 30 -105 62 -117 69
-13 8 -24 14 -25 13 -2 -1 -26 12 -54 29 -28 16 -96 53 -151 80 -92 46 -101
49 -115 34 -53 -60 -315 -303 -433 -403 -22 -19 -42 -36 -45 -39 -3 -3 -30
-25 -60 -50 -30 -25 -60 -49 -66 -55 -6 -5 -26 -21 -44 -35 -19 -14 -47 -36
-64 -50 -50 -41 -56 -45 -186 -141 -132 -97 -415 -288 -496 -335 -27 -15 -51
-31 -54 -34 -6 -7 -137 -83 -290 -168 -142 -79 -481 -246 -615 -302 -55 -23
-113 -48 -130 -56 -145 -65 -703 -255 -815 -278 -14 -2 -86 -21 -160 -40 -183
-48 -469 -103 -677 -131 -114 -15 -195 -25 -248 -30 -33 -3 -80 -7 -105 -10
-229 -22 -293 -24 -585 -24 -307 1 -385 4 -610 24 -27 3 -77 7 -110 10 -33 3
-76 8 -95 10 -19 3 -63 7 -98 11 -35 3 -73 7 -84 9 -12 3 -42 7 -67 10 -25 3
-57 7 -71 10 -14 3 -54 10 -89 16 -36 5 -67 11 -70 13 -3 2 -26 7 -51 10 -82
11 -162 28 -305 63 -33 8 -67 16 -75 18 -44 9 -188 48 -280 75 -58 17 -109 33
-115 34 -5 2 -17 5 -25 9 -8 3 -58 19 -110 35 -81 25 -299 104 -365 132 -11 4
-60 25 -110 45 -261 108 -608 283 -830 418 -227 138 -517 335 -622 422 -10 8
-58 46 -108 85 -228 181 -343 286 -581 525 l-210 213 -165 -82z"/>
</g>
</svg>
